Results
version=1
nRows=25
nColumns=21
inDegrees=yes
endheader
time	Thorax_pitch	Thorax_roll	Thorax_yaw	Thorax_Tx	Thorax_Ty	Thorax_Tz	L_shoulder_flex-ext	L_shoulder_adb-add	L_shoulder_LAR	L_elbow_flex-ext	L_forearm_pron-sup	L_wrist_flex-ext	L_MCP_flex-ext	R_shoulder_flex-ext	R_shoulder_adb-add	R_shoulder_LAR	R_elbow_flex-ext	R_forearm_pron-sup	R_wrist_flex-ext	R_MCP_flex-ext
      0.87500000	      0.00000000	      0.00000000	    184.20256242	      0.39771976	      0.07200063	      0.16192955	      0.00000000	      0.00000000	      0.00000000	    -67.49998635	     49.99999299	      0.00000000	      0.00000000	    -29.24165314	    -22.87308120	    -29.15423761	    -49.19210080	    112.14640741	    -43.84996327	      3.63535618
      0.87510000	      0.00000000	      0.00000000	    184.16503403	      0.39758053	      0.07213980	      0.16219957	      0.00000000	      0.00000000	      0.00000000	    -67.49998635	     49.99999299	      0.00000000	      0.00000000	    -29.33836494	    -23.03236096	    -29.01712304	    -49.00332646	    111.58476471	    -44.17392204	      4.33687618
      0.87520000	      0.00000000	      0.00000000	    184.27017082	      0.39735473	      0.07197321	      0.16218511	      0.00000000	      0.00000000	      0.00000000	    -67.49998635	     49.99999299	      0.00000000	      0.00000000	    -28.98534032	    -23.04110230	    -29.33991706	    -49.18013110	    112.45047133	    -44.16881348	      3.39301363
      0.87530000	      0.00000000	      0.00000000	    184.24822485	      0.39723115	      0.07202942	      0.16219145	      0.00000000	      0.00000000	      0.00000000	    -67.49998635	     49.99999299	      0.00000000	      0.00000000	    -28.99492777	    -23.01998688	    -29.30089487	    -49.26513904	    112.29336084	    -44.12048963	      3.55894034
      0.87540000	      0.00000000	      0.00000000	    184.24721060	      0.39708223	      0.07203829	      0.16219016	      0.00000000	      0.00000000	      0.00000000	    -67.49998635	     49.99999299	      0.00000000	      0.00000000	    -28.94158711	    -23.00610730	    -29.28106316	    -49.35190740	    112.26129922	    -44.17944354	      3.65343317
      0.87550000	      0.00000000	      0.00000000	    184.17118622	      0.39702168	      0.07206822	      0.16189970	      0.00000000	      0.00000000	      0.00000000	    -67.49998635	     49.99999299	      0.00000000	      0.00000000	    -29.04355914	    -22.77952484	    -29.10532881	    -49.61128300	    112.07822604	    -43.92916217	      3.83215489
      0.87560000	      0.00000000	      0.00000000	    184.23496802	      0.39682074	      0.07206667	      0.16216552	      0.00000000	      0.00000000	      0.00000000	    -67.49998635	     49.99999299	      0.00000000	      0.00000000	    -28.87971260	    -22.96556600	    -29.24436971	    -49.51383784	    112.12022745	    -44.16753699	      3.89910016
      0.87570000	      0.00000000	      0.00000000	    184.21461801	      0.39668304	      0.07209880	      0.16215302	      0.00000000	      0.00000000	      0.00000000	    -67.49998635	     49.99999299	      0.00000000	      0.00000000	    -28.86150232	    -22.93159125	    -29.21628898	    -49.60869323	    112.11914382	    -44.14854492	      3.96443530
      0.87580000	      0.00000000	      0.00000000	    184.14074879	      0.39661578	      0.07212977	      0.16186835	      0.00000000	      0.00000000	      0.00000000	    -67.49998635	     49.99999299	      0.00000000	      0.00000000	    -28.95739168	    -22.71236766	    -29.05110620	    -49.86317081	    111.94373657	    -43.91040218	      4.13563522
      0.87590000	      0.00000000	      0.00000000	    184.10172127	      0.39646619	      0.07226424	      0.16213276	      0.00000000	      0.00000000	      0.00000000	    -67.49998635	     49.99999299	      0.00000000	      0.00000000	    -29.04454333	    -22.87010510	    -28.93921013	    -49.68509074	    111.45071150	    -44.20677958	      4.79095641
      0.87600000	      0.00000000	      0.00000000	    184.22621636	      0.39624925	      0.07208616	      0.16214557	      0.00000000	      0.00000000	      0.00000000	    -67.49998635	     49.99999299	      0.00000000	      0.00000000	    -28.66760970	    -22.89224528	    -29.27835749	    -49.85054470	    112.33772808	    -44.16372370	      3.84246945
      0.87610000	      0.00000000	      0.00000000	    184.19253365	      0.39611136	      0.07214701	      0.16212576	      0.00000000	      0.00000000	      0.00000000	    -67.49998635	     49.99999299	      0.00000000	      0.00000000	    -28.68108037	    -22.85888043	    -29.23679994	    -49.95258077	    112.20518473	    -44.13656662	      4.00150228
      0.87620000	      0.00000000	      0.00000000	    184.11878135	      0.39604668	      0.07217743	      0.16185520	      0.00000000	      0.00000000	      0.00000000	    -67.49998635	     49.99999299	      0.00000000	      0.00000000	    -28.77520012	    -22.64988861	    -29.07977132	    -50.19744561	    112.03085134	    -43.90948073	      4.17206087
      0.87630000	      0.00000000	      0.00000000	    184.17912281	      0.39583746	      0.07216507	      0.16210520	      0.00000000	      0.00000000	      0.00000000	    -67.49998635	     49.99999299	      0.00000000	      0.00000000	    -28.59980854	    -22.81854192	    -29.22242117	    -50.10792835	    112.26266872	    -44.16234795	      4.06481588
      0.87640000	      0.00000000	      0.00000000	    184.10067194	      0.39575930	      0.07220619	      0.16182534	      0.00000000	      0.00000000	      0.00000000	    -67.49998635	     49.99999299	      0.00000000	      0.00000000	    -28.70045226	    -22.60085185	    -29.05848188	    -50.36847508	    112.06997447	    -43.91386336	      4.24786985
      0.87650000	      0.00000000	      0.00000000	    184.16004075	      0.39555912	      0.07219942	      0.16209003	      0.00000000	      0.00000000	      0.00000000	    -67.49998635	     49.99999299	      0.00000000	      0.00000000	    -28.53314961	    -22.77879387	    -29.19994499	    -50.27021143	    112.23988192	    -44.17626718	      4.14466644
      0.87660000	      0.00000000	      0.00000000	    184.08168220	      0.39548046	      0.07224184	      0.16181067	      0.00000000	      0.00000000	      0.00000000	    -67.49998635	     49.99999299	      0.00000000	      0.00000000	    -28.63343811	    -22.56210377	    -29.03850611	    -50.53104738	    112.04739953	    -43.92666874	      4.32805721
      0.87670000	      0.00000000	      0.00000000	    184.14573150	      0.39528048	      0.07223024	      0.16207294	      0.00000000	      0.00000000	      0.00000000	    -67.49998635	     49.99999299	      0.00000000	      0.00000000	    -28.45763080	    -22.73846101	    -29.18010308	    -50.43803360	    112.21937247	    -44.18696758	      4.23514524
      0.87680000	      0.00000000	      0.00000000	    184.06734069	      0.39520136	      0.07227340	      0.16179578	      0.00000000	      0.00000000	      0.00000000	    -67.49998635	     49.99999299	      0.00000000	      0.00000000	    -28.55815969	    -22.52334637	    -29.02045454	    -50.69691116	    112.02781126	    -43.93793308	      4.41744873
      0.87690000	      0.00000000	      0.00000000	    184.13160148	      0.39500166	      0.07226119	      0.16205586	      0.00000000	      0.00000000	      0.00000000	    -67.49998635	     49.99999299	      0.00000000	      0.00000000	    -28.38178119	    -22.69824286	    -29.16055136	    -50.60572987	    112.19972468	    -44.19731364	      4.32410031
      0.87700000	      0.00000000	      0.00000000	    184.05332792	      0.39492232	      0.07230496	      0.16178093	      0.00000000	      0.00000000	      0.00000000	    -67.49998635	     49.99999299	      0.00000000	      0.00000000	    -28.48254808	    -22.48474283	    -29.00245230	    -50.86227849	    112.00928809	    -43.94934816	      4.50510580
      0.87710000	      0.00000000	      0.00000000	    184.11773763	      0.39472270	      0.07229217	      0.16203868	      0.00000000	      0.00000000	      0.00000000	    -67.49998635	     49.99999299	      0.00000000	      0.00000000	    -28.30550782	    -22.65808475	    -29.14111668	    -50.77336736	    112.18086828	    -44.20758861	      4.41188085
      0.87720000	      0.00000000	      0.00000000	    184.03963628	      0.39464322	      0.07233648	      0.16176607	      0.00000000	      0.00000000	      0.00000000	    -67.49998635	     49.99999299	      0.00000000	      0.00000000	    -28.40653258	    -22.44622964	    -28.98443172	    -51.02737646	    111.99165044	    -43.96093898	      4.59147987
      0.87730000	      0.00000000	      0.00000000	    184.10414448	      0.39444363	      0.07232314	      0.16202136	      0.00000000	      0.00000000	      0.00000000	    -67.49998635	     49.99999299	      0.00000000	      0.00000000	    -28.22883044	    -22.61796547	    -29.12171946	    -50.94091568	    112.16288580	    -44.21793647	      4.49851946
      0.87740000	      0.00000000	      0.00000000	    184.02622890	      0.39436402	      0.07236796	      0.16175116	      0.00000000	      0.00000000	      0.00000000	    -67.49998635	     49.99999299	      0.00000000	      0.00000000	    -28.33013519	    -22.40778275	    -28.96636438	    -51.19225929	    111.97491825	    -43.97272600	      4.67666017
